<?xml version="1.0" standalone="no"?>
<!DOCTYPE svg PUBLIC "-//W3C//DTD SVG 20010904//EN"
 "http://www.w3.org/TR/2001/REC-SVG-20010904/DTD/svg10.dtd">
<svg version="1.0" xmlns="http://www.w3.org/2000/svg"
 width="980.000000pt" height="906.000000pt" viewBox="0 0 980.000000 906.000000"
 preserveAspectRatio="xMidYMid meet">

<g transform="translate(0.000000,906.000000) scale(0.100000,-0.100000)"
fill="#000000" stroke="none">
<path d="M2468 9050 c-950 -80 -1764 -621 -2178 -1448 -132 -264 -214 -521
-266 -839 -25 -153 -30 -580 -10 -763 59 -516 234 -1001 551 -1529 446 -743
1173 -1554 2530 -2822 591 -552 1729 -1590 1783 -1626 20 -14 24 -14 45 0 32
21 614 548 1112 1006 1361 1252 2004 1892 2514 2501 771 921 1145 1667 1237
2470 20 181 15 609 -10 763 -99 605 -351 1112 -756 1517 -426 425 -962 682
-1595 761 -147 19 -512 16 -668 -5 -501 -65 -983 -261 -1380 -560 -114 -85
-337 -282 -376 -332 -12 -15 -39 -47 -61 -70 l-40 -44 -42 48 c-23 26 -89 94
-147 151 -449 439 -1045 729 -1661 806 -156 19 -440 27 -582 15z m487 -775
c367 -48 722 -198 1040 -438 133 -101 286 -264 599 -637 163 -195 301 -355
306 -355 5 0 143 160 306 355 313 373 466 536 599 637 251 189 509 316 792
389 421 108 857 81 1253 -77 545 -217 954 -675 1115 -1248 54 -193 69 -317 70
-561 0 -236 -7 -309 -52 -510 -118 -540 -434 -1106 -989 -1770 -471 -565
-1106 -1200 -2299 -2300 -618 -571 -783 -720 -795 -720 -12 0 -196 166 -780
705 -1406 1297 -2073 1981 -2552 2615 -461 611 -701 1112 -785 1643 -24 154
-24 519 0 662 151 880 793 1502 1667 1614 111 14 381 12 505 -4z"/>
<path d="M2450 8269 c-561 -72 -1051 -367 -1345 -809 -161 -242 -260 -494
-312 -795 -24 -143 -24 -508 0 -662 84 -531 324 -1032 785 -1643 479 -634
1139 -1311 2542 -2605 584 -539 768 -705 780 -705 31 0 1568 1430 2079 1935
1141 1129 1697 1881 1934 2620 84 262 112 447 112 735 0 187 -4 245 -22 347
-124 684 -539 1207 -1153 1452 -674 269 -1429 154 -2045 -312 -132 -101 -276
-253 -595 -634 -167 -200 -307 -363 -310 -363 -3 0 -143 163 -310 363 -167
199 -351 409 -409 467 -326 326 -771 545 -1226 605 -124 16 -394 18 -505 4z"/>
</g>
</svg>
