<?xml version="1.0" standalone="no"?>
<!DOCTYPE svg PUBLIC "-//W3C//DTD SVG 20010904//EN"
 "http://www.w3.org/TR/2001/REC-SVG-20010904/DTD/svg10.dtd">
<svg version="1.0" xmlns="http://www.w3.org/2000/svg"
 width="980.000000pt" height="906.000000pt" viewBox="0 0 980.000000 906.000000"
 preserveAspectRatio="xMidYMid meet">

<g transform="translate(0.000000,906.000000) scale(0.100000,-0.100000)"
fill="#000000" stroke="none">
<path d="M2468 9050 c-653 -55 -1239 -322 -1689 -771 -402 -401 -656 -910
-755 -1514 -25 -155 -31 -582 -10 -765 129 -1127 817 -2175 2486 -3784 195
-189 465 -446 600 -572 646 -603 1784 -1639 1800 -1639 11 0 584 518 1120
1010 1373 1263 2017 1903 2529 2515 771 921 1145 1667 1237 2470 20 182 15
608 -10 765 -98 602 -352 1112 -756 1515 -420 419 -942 672 -1560 756 -156 21
-509 24 -665 5 -338 -40 -630 -125 -930 -270 -191 -92 -336 -180 -488 -295
-114 -85 -337 -282 -376 -332 -12 -15 -39 -47 -61 -70 l-40 -44 -42 48 c-23
26 -84 89 -137 141 -455 449 -1045 737 -1672 816 -155 19 -440 27 -581 15z
m487 -775 c367 -48 722 -198 1040 -438 133 -101 286 -264 599 -637 163 -195
301 -355 306 -355 5 0 143 160 306 355 313 373 466 536 599 637 251 189 509
316 792 389 421 108 857 81 1253 -77 545 -217 954 -675 1115 -1248 54 -193 69
-317 70 -561 0 -236 -7 -309 -52 -510 -118 -540 -434 -1106 -989 -1770 -471
-565 -1106 -1200 -2299 -2300 -618 -571 -783 -720 -795 -720 -12 0 -196 166
-780 705 -1406 1297 -2073 1981 -2552 2615 -461 611 -701 1112 -785 1643 -24
154 -24 519 0 662 151 880 793 1502 1667 1614 111 14 381 12 505 -4z"/>
</g>
</svg>
